# xmcd
#
# Track frame offsets:
#	183
#	16498
#	34270
#	52530
#	69755
#	84930
#	97998
#	116130
#	133108
#	146793
#	160330
#	174523
#	192230
#	210240
#	226385
#	242818
#	256743
#	269280
#	286633
#	301440
#
# Disc length: 4189 seconds
#
# Revision: 0
# Processed by: cddbd v1.5.2PL0 Copyright (c) Steve Scherf et al.
# Submitted via: audiograbber 1.83.01
#
DISCID=08105b14
DTITLE=Suzi Quatro - The Wild One - The Greatest Hits
DYEAR=1990
DGENRE=Rock
TTITLE0=Can The Can
TTITLE1=48 Crash
TTITLE2=Daytona Demon
TTITLE3=Devil Gate Drive
TTITLE4=Too Big
TTITLE5=The Wild One
TTITLE6=Your Mamma Won't Like Me
TTITLE7=I Bit Off More Than I Could Chew
TTITLE8=I May Be Too Young
TTITLE9=Tear Me Apart
TTITLE10=Roxy Roller
TTITLE11=If You Can't Give Me Love
TTITLE12=The Race Is On
TTITLE13=She's In Love With You
TTITLE14=Mamma's Boy
TTITLE15=I've Never Been In Love
TTITLE16=Rolling Stone
TTITLE17=All Shook Up
TTITLE18=Keep A Knockin'
TTITLE19=Wake Up Little Susie
EXTD=
EXTT0=
EXTT1=
EXTT2=
EXTT3=
EXTT4=
EXTT5=
EXTT6=
EXTT7=
EXTT8=
EXTT9=
EXTT10=
EXTT11=
EXTT12=
EXTT13=
EXTT14=
EXTT15=
EXTT16=
EXTT17=
EXTT18=
EXTT19=
PLAYORDER=
